<?xml version="1.0" encoding="iso-8859-1"?>
<!-- Generator: Adobe Illustrator 19.0.0, SVG Export Plug-In . SVG Version: 6.00 Build 0)  -->
<svg version="1.1" id="Capa_1" xmlns="http://www.w3.org/2000/svg" xmlns:xlink="http://www.w3.org/1999/xlink" x="0px" y="0px"
	 viewBox="0 0 32 32" style="enable-background:new 0 0 32 32;" xml:space="preserve">
<path d="M15.984,7.969c-4.427,0-8.016,3.596-8.016,8.031s3.589,8.031,8.016,8.031C20.411,24.031,24,20.436,24,16
	S20.411,7.969,15.984,7.969z M17.031,0H15v6h2.031V0z M8.011,8.122L3.769,3.879L2.332,5.316l4.243,4.243L8.011,8.122z M6,14.984H0
	v2.031h6V14.984z M26,15.047v2.031h6v-2.031H26z M15,32h2.031v-6H15V32z M28.886,5.034L27.45,3.598l-4.243,4.243l1.436,1.436
	L28.886,5.034z M23.207,24.159l4.243,4.243l1.436-1.436l-4.243-4.243L23.207,24.159z M2.457,27.528l1.436,1.436l4.243-4.243
	L6.7,23.286L2.457,27.528z"/>
<g>
</g>
<g>
</g>
<g>
</g>
<g>
</g>
<g>
</g>
<g>
</g>
<g>
</g>
<g>
</g>
<g>
</g>
<g>
</g>
<g>
</g>
<g>
</g>
<g>
</g>
<g>
</g>
<g>
</g>
</svg>
