<?xml version="1.0" encoding="iso-8859-1"?><!DOCTYPE svg PUBLIC "-//W3C//DTD SVG 1.1//EN"
        "http://www.w3.org/Graphics/SVG/1.1/DTD/svg11.dtd">
<svg xmlns="http://www.w3.org/2000/svg" xmlns:xlink="http://www.w3.org/1999/xlink">
    <symbol viewBox="-10 -10 52 52" id="icon-brightness" xmlns="http://www.w3.org/2000/svg">
        <path d="M15.984 7.969c-4.427 0-8.016 3.596-8.016 8.031s3.589 8.031 8.016 8.031S24 20.436 24 16s-3.589-8.031-8.016-8.031zM17.031 0H15v6h2.031V0zm-9.02 8.122L3.769 3.879 2.332 5.316l4.243 4.243 1.436-1.437zM6 14.984H0v2.031h6v-2.031zm20 .063v2.031h6v-2.031h-6zM15 32h2.031v-6H15v6zM28.886 5.034L27.45 3.598l-4.243 4.243 1.436 1.436 4.243-4.243zm-5.679 19.125l4.243 4.243 1.436-1.436-4.243-4.243-1.436 1.436zm-20.75 3.369l1.436 1.436 4.243-4.243L6.7 23.286l-4.243 4.242z"/>
    </symbol>
    <symbol viewBox="-10 -10 332 332" id="icon-contrast" xmlns="http://www.w3.org/2000/svg">
        <path d="M163.167 265.5v39c0 4.143-3.357 7.5-7.5 7.5s-7.5-3.357-7.5-7.5v-39c0-4.143 3.357-7.5 7.5-7.5s7.5 3.357 7.5 7.5zM155.667 0a7.499 7.499 0 0 0-7.5 7.5v37c0 4.143 3.357 7.5 7.5 7.5s7.5-3.357 7.5-7.5v-37c0-4.143-3.357-7.5-7.5-7.5zM53 155c0-4.143-3.357-7.5-7.5-7.5h-37c-4.143 0-7.5 3.357-7.5 7.5s3.357 7.5 7.5 7.5h37c4.143 0 7.5-3.357 7.5-7.5zm250.5-7.5h-37c-4.143 0-7.5 3.357-7.5 7.5s3.357 7.5 7.5 7.5h37c4.143 0 7.5-3.357 7.5-7.5s-3.357-7.5-7.5-7.5zM73.138 228.563l-26.26 26.26a7.5 7.5 0 1 0 10.608 10.607l26.26-26.26a7.5 7.5 0 1 0-10.608-10.607zM235.205 84.604a7.481 7.481 0 0 0 5.304-2.196l26.26-26.26a7.5 7.5 0 0 0-10.607-10.607l-26.26 26.26a7.5 7.5 0 0 0 5.303 12.803zM57.485 45.54a7.5 7.5 0 0 0-10.607 10.607l26.26 26.26c1.465 1.464 3.385 2.196 5.304 2.196s3.839-.732 5.304-2.196a7.5 7.5 0 0 0 0-10.607L57.485 45.54zm183.024 183.023a7.5 7.5 0 0 0-10.607 10.607l26.26 26.26c1.465 1.464 3.385 2.196 5.304 2.196s3.839-.732 5.304-2.196a7.5 7.5 0 0 0 0-10.607l-26.261-26.26zm5.588-73.64c0 49.226-40.048 89.273-89.273 89.273S67.55 204.148 67.55 154.923c0-49.227 40.049-89.274 89.274-89.274s89.273 40.047 89.273 89.274zm-90.93-74.252c-40 .485-73.374 33.533-73.374 74.251s33.374 73.766 73.374 74.251V80.671z"/>
    </symbol>
    <symbol viewBox="-10 -10 391.41 391.41" id="icon-gray" xmlns="http://www.w3.org/2000/svg">
        <path d="M270.265 149.448c-36.107-47.124-70.38-78.948-73.439-141.372 0-1.836-.612-3.06-1.836-4.284-.612-3.06-3.672-4.896-6.732-3.06-3.672 0-6.731 2.448-6.731 6.732-77.112 83.232-207.468 294.372-43.452 354.959 74.052 27.541 157.896-9.791 172.584-90.576 7.955-43.451-14.69-89.35-40.394-122.399zM138.686 323.256c-17.748-10.404-28.764-31.211-34.272-49.572-2.448-9.18-3.672-18.359-3.06-27.539 3.672-15.912 8.568-31.213 14.076-46.512 3.06 13.463 9.18 26.928 17.748 36.719 19.584 21.422 59.364 34.273 70.38 61.201 6.732 16.523-19.584 30.6-30.6 34.271-11.628 3.672-24.481-2.447-34.272-8.568z"/>
    </symbol>
    <symbol viewBox="-10 -10 39.44 39.44" id="icon-inversion" xmlns="http://www.w3.org/2000/svg">
        <path d="M19.251 5.758c-.913-3.811-4.858-5.015-9.944-4.235C3.924 2.347.379 5.879.089 7.033c-.119.476-.246 1.079.532 1.888.776.806 2.074-.218 3.046.789s.105 1.97-1.126 2.438c-1.232.47-2.904 1.359-1.984 3.494 1.686 3.597 6.892 2.839 12.006.672 5.114-2.169 7.601-6.745 6.688-10.556zm-3.118-2.11c.195-.093.62-.118.944-.056.321.063.567.45.545.861s-.262.936-.525 1.166c-.268.23-.716.162-.996-.151s-.47-.813-.417-1.109c.049-.298.253-.619.449-.711zM3.837 8.362c-.351-.907.481-2.071 1.856-2.6 1.375-.53 2.773-.225 3.123.683.351.906-.481 2.07-1.856 2.6-1.375.53-2.773.222-3.123-.683zM8.34 16.18c-.691.201-1.357.055-1.48-.324a6.85 6.85 0 0 1-.267-1.182c-.023-.271.261-.688.631-.932.371-.24 1.076-.173 1.566.152.488.324.872.889.849 1.254-.024.368-.609.833-1.299 1.032zM9.552 4.39c-.449.168-2.145.089-1.867-.636.021-.053 0 0 .105-.197l.104-.197c.15-.348.466-.649.707-.678.24-.027.612.033.829.132.215.099.515.426.665.726s-.094.682-.543.85zm3.405 9.587c-.319.246-.921.285-1.335.087-.414-.2-.756-.605-.763-.906-.004-.298.258-.628.58-.732.324-.104.734-.18.914-.166.181.016.521.307.755.646a.796.796 0 0 1-.151 1.071zm.481-9.748c-.15.224-.562.349-.914.278-.352-.071-.682-.432-.732-.801-.053-.37.121-.842.384-1.048.265-.206.642-.266.838-.133.194.133.434.479.528.769.094.291.048.712-.104.935zm2.767 8.342l-.165-.021-.165-.021c-.592-.456-1.06-1.027-1.036-1.273.021-.246.243-.549.491-.672s.672-.104.94.041c.271.146.491.559.491.916.002.359-.25.82-.556 1.03zm1.749-3.502c-.211.35-.645.534-.958.41-.314-.124-.494-.765-.396-1.423.099-.658.393-1.159.653-1.112.263.047.615.401.782.787.166.386.13.988-.081 1.338z"
              />
    </symbol>
    <symbol viewBox="-10 -10 110 110"  id="icon-resize" xmlns="http://www.w3.org/2000/svg">
        <path d="M0 0v35l15-15 15 15 5-5-15-15L35 0zM55 0l15 15-15 15 5 5 15-15 15 15V0zM30 55L15 70 0 55v35h35L20 75l15-15zM60 55l-5 5 15 15-15 15h35V55L75 70z"/>
    </symbol>
    <symbol viewBox="-10 -10 632 632" id="icon-rotate" xmlns="http://www.w3.org/2000/svg">
        <path d="M583.312 19.125c-15.836 0-28.688 12.852-28.688 28.688v79.847C497.671 48.004 406.062 0 306 0 137.279 0 0 137.279 0 306s137.279 306 306 306c124.37 0 235.429-74.301 282.936-189.261a28.535 28.535 0 0 0-.02-21.918 28.653 28.653 0 0 0-15.567-15.548c-7.306-3.022-15.147-2.793-21.917.019a28.766 28.766 0 0 0-15.53 15.549C497.308 494.267 407.057 554.625 306 554.625 168.912 554.625 57.375 443.088 57.375 306S168.912 57.375 306 57.375c85.795 0 163.901 43.471 209.399 114.75h-85.087c-15.836 0-28.688 12.852-28.688 28.688s12.852 28.688 28.688 28.688h153c15.836 0 28.688-12.852 28.688-28.688v-153c0-15.836-12.852-28.688-28.688-28.688z"/>
    </symbol>
    <symbol viewBox="-10 -10 538.77 538.77" id="icon-scale1" xmlns="http://www.w3.org/2000/svg">
        <path d="M385.487 283.289l53.786-53.192v255.2c0 7.57-2.688 13.945-8.065 19.125s-11.654 7.77-18.826 7.77H26.894c-7.172 0-13.447-2.59-18.826-7.77S0 492.867 0 485.297V119.531c0-7.57 2.689-13.945 8.068-19.125s11.654-7.77 18.826-7.77h273.127l-53.791 53.789H53.787v311.977h331.702l-.002-175.113zM307.194 30.48l48.407 46.617L193.64 239.062l97.418 97.416 161.965-161.964 50.203 51.398 15.539-219.34L307.194 30.48z"/>
    </symbol>
</svg>